HIERARCHY
ROOT Hips
{
	OFFSET 0.000000 0.000000 0.000000
	CHANNELS 6 Xposition Yposition Zposition Xrotation Yrotation Zrotation
	JOINT LeftUpLeg_virtual
	{
		OFFSET 0.000000 0.000000 0.000000
		CHANNELS 3 Xrotation Yrotation Zrotation
		JOINT LeftUpLeg
		{
			OFFSET 13.026900 -6.336304 -1.092800
			CHANNELS 3 Xrotation Yrotation Zrotation
			JOINT LeftLeg
			{
				OFFSET 0.524474 -46.096886 9.782700
				CHANNELS 3 Xrotation Yrotation Zrotation
				JOINT LeftFoot
				{
					OFFSET -0.524474 -53.427422 -12.948200
					CHANNELS 3 Xrotation Yrotation Zrotation
					JOINT LeftToeBase
					{
						OFFSET 0.192200 -14.009700 16.364100
						CHANNELS 3 Xrotation Yrotation Zrotation
						JOINT LeftToe_End
						{
							OFFSET -1.784700 -0.561700 9.474800
							CHANNELS 3 Xrotation Yrotation Zrotation
							End Site
							{
								OFFSET 0 0 0
							}
						}
					}
				}
			}
		}
	}
	JOINT RightUpLeg_virtual
	{
		OFFSET 0.000000 0.000000 0.000000
		CHANNELS 3 Xrotation Yrotation Zrotation
		JOINT RightUpLeg
		{
			OFFSET -12.883000 -6.336304 -1.092800
			CHANNELS 3 Xrotation Yrotation Zrotation
			JOINT RightLeg
			{
				OFFSET -0.524587 -46.096825 9.782800
				CHANNELS 3 Xrotation Yrotation Zrotation
				JOINT RightFoot
				{
					OFFSET 0.524587 -53.427383 -12.948300
					CHANNELS 3 Xrotation Yrotation Zrotation
					JOINT RightToeBase
					{
						OFFSET -0.192200 -14.009700 16.364100
						CHANNELS 3 Xrotation Yrotation Zrotation
						JOINT RightToe_End
						{
							OFFSET 1.784700 -0.561700 9.474800
							CHANNELS 3 Xrotation Yrotation Zrotation
							End Site
							{
								OFFSET 0 0 0
							}
						}
					}
				}
			}
		}
	}
	JOINT Spine_virtual
	{
		OFFSET 0.000000 0.000000 0.000000
		CHANNELS 3 Xrotation Yrotation Zrotation
		JOINT Spine
		{
			OFFSET 0.072000 7.257294 -0.789700
			CHANNELS 3 Xrotation Yrotation Zrotation
			JOINT Spine1
			{
				OFFSET 0.000000 12.508769 -0.658067
				CHANNELS 3 Xrotation Yrotation Zrotation
				JOINT Spine1_split
				{
					OFFSET 0.000000 12.508769 -0.658067
					CHANNELS 3 Xrotation Yrotation Zrotation
					JOINT Spine2
					{
						OFFSET 0.000000 12.508769 -0.658067
						CHANNELS 3 Xrotation Yrotation Zrotation
						JOINT Neck_virtual
						{
							OFFSET 0.000000 0.000000 0.000000
							CHANNELS 3 Xrotation Yrotation Zrotation
							JOINT Neck
							{
								OFFSET 0.000000 14.033295 7.520400
								CHANNELS 3 Xrotation Yrotation Zrotation
								JOINT Head
								{
									OFFSET 0.000000 8.198502 5.703100
									CHANNELS 3 Xrotation Yrotation Zrotation
									JOINT HeadTop_End
									{
										OFFSET 0.000000 17.760803 13.332701
										CHANNELS 3 Xrotation Yrotation Zrotation
										End Site
										{
											OFFSET 0 0 0
										}
									}
								}
							}
						}
						JOINT LeftShoulder_virtual
						{
							OFFSET 0.000000 0.000000 0.000000
							CHANNELS 3 Xrotation Yrotation Zrotation
							JOINT LeftShoulder
							{
								OFFSET 6.292450 5.785301 -0.669000
								CHANNELS 3 Xrotation Yrotation Zrotation
								JOINT LeftShoulder_split
								{
									OFFSET 6.292450 5.785301 -0.669000
									CHANNELS 3 Xrotation Yrotation Zrotation
									JOINT LeftArm
									{
										OFFSET 13.907140 -6.093903 1.965100
										CHANNELS 3 Xrotation Yrotation Zrotation
										JOINT LeftForeArm
										{
											OFFSET 34.140198 0.000000 0.000000
											CHANNELS 3 Xrotation Yrotation Zrotation
											JOINT LeftHand
											{
												OFFSET 40.960209 0.000000 0.000000
												CHANNELS 3 Xrotation Yrotation Zrotation
												End Site
												{
													OFFSET 0 0 0
												}
											}
										}
									}
								}
							}
						}
						JOINT RightShoulder_virtual
						{
							OFFSET 0.000000 0.000000 0.000000
							CHANNELS 3 Xrotation Yrotation Zrotation
							JOINT RightShoulder
							{
								OFFSET -6.292450 5.785301 -0.669000
								CHANNELS 3 Xrotation Yrotation Zrotation
								JOINT RightShoulder_split
								{
									OFFSET -6.292450 5.785301 -0.669000
									CHANNELS 3 Xrotation Yrotation Zrotation
									JOINT RightArm
									{
										OFFSET -13.907140 -6.093903 1.965100
										CHANNELS 3 Xrotation Yrotation Zrotation
										JOINT RightForeArm
										{
											OFFSET -34.140198 0.000000 0.000000
											CHANNELS 3 Xrotation Yrotation Zrotation
											JOINT RightHand
											{
												OFFSET -40.960209 0.000000 0.000000
												CHANNELS 3 Xrotation Yrotation Zrotation
												End Site
												{
													OFFSET 0 0 0
												}
											}
										}
									}
								}
							}
						}
					}
				}
			}
		}
	}
}
MOTION
Frames: 8
Frame Time: 0.03333333
7.779672 100.053703 -9.886028 0.000000 0.000000 0.000000 20.329145 8.950050 -23.161317 -70.880432 -8.891043 16.020209 62.453023 11.067378 0.050214 -2.734023 -19.083482 -10.526859 -8.595609 -2.429195 1.372414 0.000000 0.000000 0.000000 20.590756 9.960158 -24.316377 -22.977315 -23.768080 5.527225 25.870166 7.130198 -2.703325 -8.769638 -17.701897 14.790042 1.227970 0.786125 -7.540055 0.000000 0.000000 0.000000 21.398919 14.383931 -25.666053 16.128699 0.898557 -13.970537 7.803606 0.332427 -7.971183 0.348547 -0.771535 0.074723 0.000000 0.000000 0.000000 7.102870 2.487138 -7.579434 -3.663946 21.679662 1.200981 18.629558 -3.795626 54.333984 0.000000 0.000000 0.000000 5.387485 -0.417280 -7.005517 -2.534275 -9.764259 1.808172 -3.133273 2.440438 -0.869476 -43.408478 -38.584408 -79.953115 -24.236592 -50.491446 -15.843365 0.000000 0.000000 0.000000 5.542970 -0.010551 -7.141871 -4.529824 5.346996 -4.106923 6.070973 -0.089289 0.386761 19.714532 60.670883 1.397317 -52.599977 72.015773 37.713935 0.000000 0.000000 0.000000 
7.927988 100.210159 -9.859951 0.000000 0.000000 0.000000 20.145447 8.644480 -22.689067 -70.521157 -7.762709 16.552946 61.898057 11.034548 0.203537 -2.927002 -18.732304 -10.485497 -8.079300 -2.352573 1.407875 0.000000 0.000000 0.000000 20.508973 9.874484 -23.896602 -23.292571 -23.774406 5.238002 26.103265 7.052853 -2.627765 -8.884607 -17.477387 14.534467 1.580236 0.741942 -7.424912 0.000000 0.000000 0.000000 20.964443 14.129641 -25.124946 15.915760 0.667379 -13.569860 8.161358 0.505289 -8.037302 0.348280 -0.712694 0.053951 0.000000 0.000000 0.000000 7.467606 2.693975 -7.650304 -2.769310 21.639042 2.166548 20.811749 -5.092384 57.151290 0.000000 0.000000 0.000000 5.550075 -0.243243 -7.078114 -2.566724 -9.432717 1.361460 -2.861392 2.044468 -0.636063 -42.444144 -38.760101 -79.288586 -23.519688 -51.264726 -15.243326 0.000000 0.000000 0.000000 5.621566 0.140297 -7.142726 -4.368795 6.081009 -4.288451 6.051754 0.326668 0.610018 20.241759 60.595683 1.220534 -49.822484 70.586085 35.146460 0.000000 0.000000 0.000000 
7.968114 100.309059 -9.806019 0.000000 0.000000 0.000000 19.918959 8.245926 -22.177317 -70.240757 -6.268380 17.356469 61.457851 11.148801 0.322546 -3.426719 -18.210399 -10.140113 -7.109635 -2.269869 1.442727 0.000000 0.000000 0.000000 20.361291 9.685231 -23.451453 -23.759301 -23.716862 4.890234 26.526242 6.886830 -2.501339 -8.996661 -17.286488 14.230826 1.963025 0.677163 -7.380387 0.000000 0.000000 0.000000 20.403240 13.730347 -24.536428 15.620904 0.456938 -13.172507 8.503472 0.583441 -8.121875 0.319899 -0.677528 0.083192 0.000000 0.000000 0.000000 7.855555 2.824537 -7.706199 -2.056494 21.630079 3.277735 22.906026 -6.949143 60.316588 0.000000 0.000000 0.000000 5.766757 -0.145358 -7.183424 -2.628593 -8.984302 0.837083 -2.394799 1.878448 -0.557808 -41.103826 -38.906171 -78.362931 -22.193969 -51.800428 -14.042126 0.000000 0.000000 0.000000 5.727885 0.218489 -7.144501 -4.291728 6.847397 -4.431223 5.884474 0.832476 0.808869 20.826828 60.441901 1.297203 -46.734705 68.706020 32.359428 0.000000 0.000000 0.000000 
7.941421 100.358978 -9.788242 0.000000 0.000000 0.000000 19.683750 7.695167 -21.571295 -70.070235 -4.653381 18.212778 61.189424 11.192114 0.531094 -4.024344 -17.641639 -9.875820 -6.182446 -2.184316 1.527327 0.000000 0.000000 0.000000 20.123318 9.194771 -22.876419 -24.518040 -23.619829 4.402128 27.128921 6.689569 -2.357525 -8.992352 -17.088524 13.994009 2.392967 0.590761 -7.402448 0.000000 0.000000 0.000000 19.811454 13.109615 -23.830556 15.330549 0.282788 -12.807879 8.867638 0.544583 -8.222720 0.288035 -0.731053 0.123689 0.000000 0.000000 0.000000 8.250601 2.870787 -7.744188 -1.527770 21.667563 4.490835 24.943764 -9.182910 63.461446 0.000000 0.000000 0.000000 6.085041 -0.129012 -7.317597 -2.709627 -8.493465 0.332700 -1.829261 1.981216 -0.557024 -39.627200 -39.077647 -77.141919 -20.527176 -52.406477 -12.464178 0.000000 0.000000 0.000000 5.900658 0.214831 -7.157484 -4.279485 7.628346 -4.507725 5.387533 1.291889 1.121410 21.958804 60.189840 0.904253 -44.059122 66.728093 30.070731 0.000000 0.000000 0.000000 
7.867474 100.421982 -9.849026 0.000000 0.000000 0.000000 19.497011 6.979962 -20.873058 -69.969141 -3.127057 18.964710 61.045895 10.970077 0.893573 -4.403966 -17.146927 -9.932276 -5.759146 -2.110961 1.723109 0.000000 0.000000 0.000000 19.817014 8.380559 -22.125513 -25.561664 -23.432782 3.798816 27.808576 6.500459 -2.227354 -8.803001 -16.837446 13.900231 2.799619 0.488787 -7.479595 0.000000 0.000000 0.000000 19.354540 12.245482 -23.027573 15.104145 0.197801 -12.489274 9.281914 0.438673 -8.350694 0.286975 -0.834307 0.168303 0.000000 0.000000 0.000000 8.621932 2.876768 -7.779895 -1.159931 21.677514 5.773385 26.972791 -11.573830 66.166454 0.000000 0.000000 0.000000 6.520867 -0.160126 -7.481283 -2.766662 -8.077739 -0.011712 -1.244780 2.298599 -0.420010 -38.121181 -39.427376 -75.703358 -18.854660 -53.454126 -10.790814 0.000000 0.000000 0.000000 6.150761 0.185569 -7.210180 -4.276926 8.395540 -4.496352 4.529185 1.457005 1.560942 23.548030 59.839199 0.119564 -42.248736 65.061944 28.732581 0.000000 0.000000 0.000000 
7.747097 100.524628 -9.987118 0.000000 0.000000 0.000000 19.363136 6.116663 -20.099013 -69.942121 -1.786216 19.598504 60.909844 10.572272 1.348223 -4.434449 -16.679416 -10.136279 -5.761795 -2.048580 1.976322 0.000000 0.000000 0.000000 19.575722 7.437478 -21.272358 -26.768597 -23.043904 3.209009 28.423670 6.312994 -2.136676 -8.466125 -16.526242 13.918884 3.119084 0.380622 -7.588245 0.000000 0.000000 0.000000 19.075777 11.164153 -22.173574 14.974592 0.249325 -12.211762 9.748442 0.343639 -8.504713 0.294417 -0.939517 0.200623 0.000000 0.000000 0.000000 8.953365 2.896057 -7.833428 -0.911093 21.639687 7.073746 28.750407 -13.898141 68.017155 0.000000 0.000000 0.000000 7.086564 -0.187811 -7.675673 -2.760845 -7.855556 -0.043975 -0.669837 2.830750 -0.128621 -36.587011 -39.874364 -74.169591 -17.475632 -55.138396 -9.313058 0.000000 0.000000 0.000000 6.502553 0.183111 -7.313939 -4.279520 9.075529 -4.376346 3.522690 1.272611 1.935574 25.392821 59.453709 -0.861881 -41.358015 63.913768 28.388694 0.000000 0.000000 0.000000 
7.610224 100.684128 -10.190044 0.000000 0.000000 0.000000 19.304932 5.101846 -19.303298 -69.946164 -0.674680 20.092140 60.691633 10.241456 1.810017 -4.234331 -16.018610 -10.200632 -5.575183 -1.971017 2.109732 0.000000 0.000000 0.000000 19.524297 6.467396 -20.393594 -27.959463 -22.363072 2.785022 28.866026 6.057098 -2.102387 -8.062498 -16.195943 13.891812 3.332984 0.284635 -7.692180 0.000000 0.000000 0.000000 18.933368 9.911729 -21.304200 14.921933 0.443558 -11.958354 10.238664 0.344160 -8.651894 0.302522 -1.050301 0.181648 0.000000 0.000000 0.000000 9.218189 2.989474 -7.903442 -0.714306 21.506471 8.311414 30.331678 -16.526455 68.960923 0.000000 0.000000 0.000000 7.694176 -0.139804 -7.891826 -2.668377 -7.964858 0.271738 -0.152523 3.531598 0.126906 -35.099564 -40.456850 -72.789572 -16.646856 -57.375925 -8.313646 0.000000 0.000000 0.000000 6.929448 0.296257 -7.446417 -4.260714 9.582501 -4.063579 2.557630 0.719897 2.207532 27.143752 59.146856 -1.737137 -41.093966 63.153985 28.711469 0.000000 0.000000 0.000000 
7.435143 100.885910 -10.433338 0.000000 0.000000 0.000000 19.356534 3.950737 -18.529200 -69.950228 0.299266 20.573221 60.249631 10.083097 2.211109 -4.035379 -15.001221 -10.092159 -4.769877 -1.841787 2.022480 0.000000 0.000000 0.000000 19.645934 5.502914 -19.559078 -29.145558 -21.413280 2.569003 29.166902 5.687659 -2.116097 -7.643485 -15.843956 13.720047 3.403169 0.214867 -7.754652 0.000000 0.000000 0.000000 18.900564 8.577445 -20.498306 14.909799 0.757869 -11.726225 10.677374 0.488288 -8.730624 0.291079 -1.110189 0.158446 0.000000 0.000000 0.000000 9.398584 3.190587 -7.937049 -0.524548 21.253850 9.403410 31.445262 -19.592328 69.046867 0.000000 0.000000 0.000000 8.243897 0.018896 -8.049825 -2.477291 -8.463527 0.882653 0.320609 4.349594 0.070936 -33.543681 -41.192301 -71.619028 -16.651001 -59.863234 -8.102022 0.000000 0.000000 0.000000 7.369932 0.546547 -7.539909 -4.230184 9.903345 -3.463024 1.791260 0.099117 2.474660 28.594215 59.111087 -2.392707 -40.881394 62.339861 29.098464 0.000000 0.000000 0.000000 
